<svg width="20" height="20" viewBox="0 0 20 20" fill="none" xmlns="http://www.w3.org/2000/svg">
<g clip-path="url(#clip0_154_6519)">
<path fill-rule="evenodd" clip-rule="evenodd" d="M6.10841 1.66675H13.8834C16.7167 1.66675 18.3334 3.26675 18.3334 6.10841V13.8917C18.3334 16.7167 16.7251 18.3334 13.8917 18.3334H6.10841C3.26675 18.3334 1.66675 16.7167 1.66675 13.8917V6.10841C1.66675 3.26675 3.26675 1.66675 6.10841 1.66675ZM10.6834 10.6917H13.0501C13.4334 10.6834 13.7417 10.3751 13.7417 9.99175C13.7417 9.60842 13.4334 9.30008 13.0501 9.30008H10.6834V6.95008C10.6834 6.56675 10.3751 6.25841 9.99175 6.25841C9.60841 6.25841 9.30008 6.56675 9.30008 6.95008V9.30008H6.94175C6.75841 9.30008 6.58342 9.37508 6.45008 9.50008C6.32508 9.63342 6.25008 9.80758 6.25008 9.99175C6.25008 10.3751 6.55841 10.6834 6.94175 10.6917H9.30008V13.0501C9.30008 13.4334 9.60841 13.7417 9.99175 13.7417C10.3751 13.7417 10.6834 13.4334 10.6834 13.0501V10.6917Z" fill="#333333"/>
</g>
<defs>
<clipPath id="clip0_154_6519">
<rect width="20" height="20" fill="white"/>
</clipPath>
</defs>
</svg>
