<svg width="182" height="322" viewBox="0 0 182 322" fill="none" xmlns="http://www.w3.org/2000/svg">
<rect x="0.000183105" y="310.599" width="310.996" height="161.532" rx="12" transform="rotate(-86.2481 0.000183105 310.599)" fill="#F9FF91"/>
<mask id="mask0_154_5747" style="mask-type:alpha" maskUnits="userSpaceOnUse" x="0" y="1" width="181" height="320">
<rect y="310.599" width="310.996" height="161.532" rx="12" transform="rotate(-86.2481 0 310.599)" fill="#D9D9D9"/>
</mask>
<g mask="url(#mask0_154_5747)">
<circle cx="124.216" cy="61.1049" r="22.216" transform="rotate(-86.2481 124.216 61.1049)" fill="#F53030"/>
<path d="M179.109 -7.92603C191.353 -7.12316 200.627 3.45283 199.824 15.6961C199.021 27.9394 188.445 37.2136 176.202 36.4108C163.959 35.6079 154.684 25.0319 155.487 12.7886C156.29 0.545366 166.866 -8.72891 179.109 -7.92603ZM176.672 29.249C184.96 29.7925 192.119 23.5144 192.662 15.2265C193.206 6.93852 186.928 -0.220778 178.64 -0.764275C170.352 -1.30777 163.193 4.97034 162.649 13.2583C162.106 21.5462 168.384 28.7055 176.672 29.249Z" fill="#41CC70"/>
<rect x="150.745" y="85.1083" width="44.432" height="44.432" rx="12" transform="rotate(-86.2481 150.745 85.1083)" fill="#9747FF"/>
<rect x="103.882" y="31.6682" width="44.432" height="44.432" rx="12" transform="rotate(-86.2481 103.882 31.6682)" fill="#FFCF23"/>
</g>
<rect x="15.7938" y="296.749" width="44.5606" height="29.707" rx="8" transform="rotate(-86.2481 15.7938 296.749)" fill="#161616"/>
<circle cx="25.2321" cy="287.6" r="3.24921" transform="rotate(-86.2481 25.2321 287.6)" fill="#F9FF91"/>
<circle cx="38.915" cy="263.378" r="3.24921" transform="rotate(-86.2481 38.915 263.378)" fill="#F9FF91"/>
<rect x="22.3847" y="281.366" width="22.2803" height="6.49842" rx="3.24921" transform="rotate(-86.2481 22.3847 281.366)" fill="#F9FF91"/>
<rect x="33.8199" y="291.419" width="22.2803" height="6.49842" rx="3.24921" transform="rotate(-86.2481 33.8199 291.419)" fill="#F9FF91"/>
<circle cx="94.6991" cy="299.418" r="2.5" transform="rotate(-86.2481 94.6991 299.418)" fill="#161616"/>
<circle cx="95.2881" cy="290.437" r="2.5" transform="rotate(-86.2481 95.2881 290.437)" fill="#161616"/>
<circle cx="95.8769" cy="281.457" r="2.5" transform="rotate(-86.2481 95.8769 281.457)" fill="#161616"/>
<circle cx="96.4659" cy="272.476" r="2.5" transform="rotate(-86.2481 96.4659 272.476)" fill="#161616"/>
<circle cx="97.7092" cy="253.517" r="2.5" transform="rotate(-86.2481 97.7092 253.517)" fill="#161616"/>
<circle cx="98.2981" cy="244.536" r="2.5" transform="rotate(-86.2481 98.2981 244.536)" fill="#161616"/>
<circle cx="98.887" cy="235.555" r="2.5" transform="rotate(-86.2481 98.887 235.555)" fill="#161616"/>
<circle cx="99.4759" cy="226.575" r="2.5" transform="rotate(-86.2481 99.4759 226.575)" fill="#161616"/>
<path d="M107.256 207.275L99.3485 206.757L99.223 208.67L98.294 208.61C98.3331 208.014 98.3172 207.542 98.2463 207.196C98.1712 206.845 98.0453 206.589 97.8688 206.428C97.688 206.262 97.4608 206.16 97.1873 206.124L97.2555 205.083L107.356 205.745L107.256 207.275ZM107.547 202.823L106.702 202.768L106.255 202.738C105.743 202.705 105.305 202.58 104.94 202.365C104.576 202.144 104.264 201.867 104.005 201.532C103.742 201.196 103.513 200.833 103.319 200.441C103.125 200.045 102.941 199.652 102.765 199.262C102.59 198.871 102.405 198.511 102.212 198.18C102.014 197.849 101.786 197.579 101.528 197.371C101.266 197.157 100.952 197.038 100.584 197.014C100.099 196.982 99.6947 197.126 99.3698 197.446C99.0448 197.767 98.8632 198.218 98.825 198.8C98.7844 199.419 98.9261 199.933 99.25 200.343C99.5739 200.752 100.041 201.007 100.652 201.108L100.556 202.575C99.9559 202.522 99.4184 202.339 98.9431 202.027C98.4678 201.716 98.1013 201.278 97.8437 200.714C97.586 200.15 97.4836 199.465 97.5365 198.659C97.5823 197.961 97.7452 197.366 98.0253 196.874C98.301 196.378 98.6669 196.004 99.123 195.754C99.579 195.503 100.098 195.397 100.68 195.435C101.197 195.469 101.636 195.593 101.996 195.809C102.356 196.024 102.66 196.297 102.91 196.626C103.16 196.951 103.377 197.307 103.563 197.693C103.743 198.079 103.917 198.465 104.083 198.85C104.245 199.235 104.42 199.59 104.609 199.916C104.794 200.241 105.01 200.508 105.258 200.716C105.507 200.924 105.815 201.04 106.183 201.064L106.357 201.076L106.704 195.795L108.003 195.88L107.547 202.823ZM101.013 193.562C100.338 193.518 99.7806 193.32 99.3407 192.969C98.8964 192.612 98.5709 192.156 98.3642 191.6C98.1578 191.039 98.0762 190.428 98.1196 189.767C98.1663 189.055 98.3078 188.43 98.5441 187.894C98.7803 187.357 99.1043 186.946 99.5159 186.66C99.9278 186.369 100.42 186.242 100.993 186.28C101.491 186.312 101.93 186.498 102.31 186.836C102.686 187.169 102.964 187.669 103.145 188.336C103.289 187.92 103.486 187.556 103.736 187.245C103.981 186.934 104.277 186.698 104.624 186.539C104.971 186.374 105.366 186.307 105.809 186.336C106.279 186.367 106.691 186.494 107.046 186.719C107.401 186.943 107.695 187.243 107.927 187.618C108.16 187.994 108.325 188.428 108.424 188.92C108.523 189.413 108.551 189.941 108.51 190.504C108.457 191.231 108.288 191.856 108.001 192.379C107.709 192.903 107.321 193.3 106.835 193.572C106.35 193.845 105.79 193.969 105.155 193.946L105.252 192.473C105.868 192.415 106.348 192.198 106.69 191.823C107.029 191.443 107.217 190.962 107.255 190.38C107.286 189.905 107.241 189.491 107.119 189.137C106.993 188.778 106.808 188.494 106.565 188.286C106.316 188.078 106.02 187.963 105.675 187.94C105.303 187.916 104.979 188 104.705 188.193C104.431 188.38 104.214 188.651 104.055 189.006C103.892 189.355 103.791 189.753 103.752 190.2L103.67 191.127L102.427 191.046L102.456 190.178C102.474 189.753 102.42 189.373 102.292 189.037C102.16 188.697 101.977 188.425 101.742 188.223C101.508 188.02 101.242 187.909 100.943 187.89C100.673 187.872 100.421 187.94 100.187 188.093C99.9524 188.241 99.7598 188.467 99.609 188.77C99.4538 189.069 99.362 189.435 99.3336 189.868C99.3107 190.217 99.3541 190.554 99.4637 190.879C99.5736 191.2 99.7639 191.472 100.035 191.695C100.301 191.914 100.659 192.047 101.11 192.096L101.013 193.562ZM98.9324 179.511L99.0309 178.01L105.352 178.424L105.46 176.783L106.752 176.867L106.645 178.509L109.131 178.672L109.036 180.125L106.549 179.962L106.239 184.691L104.926 184.605L98.9324 179.511ZM105.039 183.195L105.256 179.898L100.834 179.608L105.039 183.195Z" fill="#161616"/>
<path d="M140.119 302.122L133.342 301.678L133.234 303.318L132.438 303.266C132.472 302.755 132.458 302.352 132.397 302.055C132.333 301.754 132.225 301.535 132.074 301.396C131.919 301.254 131.724 301.167 131.49 301.136L131.548 300.244L140.205 300.811L140.119 302.122ZM140.373 298.249L139.649 298.202L139.266 298.177C138.827 298.148 138.451 298.041 138.138 297.856C137.826 297.667 137.559 297.429 137.337 297.142C137.112 296.855 136.916 296.543 136.749 296.208C136.583 295.868 136.425 295.531 136.274 295.197C136.124 294.862 135.966 294.553 135.8 294.27C135.63 293.986 135.435 293.755 135.214 293.576C134.99 293.393 134.72 293.291 134.404 293.27C133.989 293.243 133.643 293.367 133.364 293.641C133.085 293.915 132.93 294.302 132.897 294.801C132.862 295.332 132.984 295.773 133.261 296.123C133.539 296.474 133.939 296.693 134.463 296.78L134.381 298.037C133.866 297.991 133.406 297.835 132.998 297.567C132.591 297.3 132.277 296.925 132.056 296.441C131.835 295.958 131.747 295.371 131.793 294.68C131.832 294.082 131.972 293.572 132.212 293.15C132.448 292.725 132.762 292.405 133.152 292.19C133.543 291.975 133.988 291.884 134.487 291.917C134.93 291.946 135.306 292.053 135.615 292.237C135.923 292.422 136.185 292.655 136.398 292.938C136.613 293.217 136.799 293.521 136.958 293.852C137.113 294.183 137.261 294.514 137.404 294.844C137.543 295.174 137.693 295.478 137.855 295.757C138.013 296.036 138.199 296.265 138.411 296.443C138.624 296.621 138.888 296.721 139.204 296.742L139.353 296.751L139.65 292.225L140.764 292.298L140.373 298.249ZM141.234 291.183L132.378 287.584L132.441 286.626L141.296 290.225L141.234 291.183ZM135.085 285.552C134.506 285.514 134.028 285.345 133.651 285.043C133.27 284.738 132.991 284.347 132.814 283.87C132.637 283.389 132.567 282.866 132.605 282.299C132.645 281.688 132.766 281.153 132.968 280.693C133.171 280.234 133.449 279.881 133.801 279.636C134.154 279.386 134.576 279.278 135.067 279.31C135.494 279.338 135.871 279.497 136.197 279.787C136.519 280.072 136.757 280.501 136.912 281.072C137.036 280.716 137.204 280.404 137.418 280.137C137.628 279.871 137.882 279.669 138.18 279.532C138.477 279.391 138.816 279.333 139.195 279.358C139.598 279.384 139.952 279.494 140.256 279.686C140.56 279.878 140.812 280.135 141.011 280.457C141.21 280.779 141.352 281.151 141.437 281.573C141.521 281.996 141.546 282.448 141.51 282.931C141.465 283.554 141.32 284.089 141.074 284.538C140.824 284.987 140.491 285.328 140.075 285.561C139.659 285.794 139.179 285.901 138.635 285.881L138.718 284.618C139.246 284.568 139.657 284.383 139.951 284.062C140.241 283.736 140.402 283.323 140.435 282.825C140.462 282.417 140.423 282.062 140.318 281.759C140.21 281.451 140.052 281.208 139.843 281.03C139.63 280.852 139.376 280.753 139.081 280.733C138.762 280.713 138.484 280.785 138.249 280.949C138.014 281.11 137.828 281.343 137.692 281.647C137.552 281.946 137.466 282.287 137.433 282.67L137.362 283.465L136.297 283.395L136.321 282.651C136.337 282.287 136.291 281.961 136.181 281.674C136.068 281.382 135.911 281.149 135.71 280.975C135.509 280.802 135.28 280.707 135.025 280.69C134.793 280.675 134.577 280.733 134.376 280.864C134.175 280.991 134.01 281.185 133.881 281.445C133.748 281.701 133.669 282.014 133.645 282.385C133.625 282.685 133.663 282.974 133.757 283.252C133.851 283.527 134.014 283.76 134.246 283.952C134.474 284.139 134.781 284.254 135.167 284.295L135.085 285.552ZM133.305 273.452L133.389 272.164L138.808 272.52L138.9 271.113L140.008 271.185L139.915 272.592L142.047 272.732L141.965 273.977L139.834 273.838L139.568 277.891L138.442 277.817L133.305 273.452ZM138.54 276.609L138.725 273.783L134.935 273.534L138.54 276.609Z" fill="#161616"/>
<circle cx="47.564" cy="39.268" r="9.28345" transform="rotate(-86.2481 47.564 39.268)" fill="#FFCF23"/>
<circle cx="48.4147" cy="26.2991" r="9.28345" transform="rotate(-86.2481 48.4147 26.2991)" fill="#F92D2D"/>
<path fill-rule="evenodd" clip-rule="evenodd" d="M47.8071 35.5627C51.9004 35.8311 52.2647 30.2729 48.1715 30.0044C44.0782 29.736 43.7138 35.2942 47.8071 35.5627Z" fill="#EA9240"/>
</svg>
