<svg width="20" height="20" viewBox="0 0 20 20" fill="none" xmlns="http://www.w3.org/2000/svg">
<path d="M14.932 11.9334C14.7162 12.1425 14.617 12.445 14.6662 12.7417L15.407 16.8417C15.4695 17.1892 15.3228 17.5409 15.032 17.7417C14.747 17.95 14.3678 17.975 14.057 17.8084L10.3662 15.8834C10.2378 15.815 10.0953 15.7784 9.94949 15.7742H9.72366C9.64532 15.7859 9.56866 15.8109 9.49866 15.8492L5.80699 17.7834C5.62449 17.875 5.41782 17.9075 5.21532 17.875C4.72199 17.7817 4.39282 17.3117 4.47366 16.8159L5.21532 12.7159C5.26449 12.4167 5.16532 12.1125 4.94949 11.9L1.94032 8.98337C1.68866 8.73921 1.60116 8.37254 1.71616 8.04171C1.82782 7.71171 2.11282 7.47087 2.45699 7.41671L6.59866 6.81587C6.91366 6.78337 7.19032 6.59171 7.33199 6.30837L9.15699 2.56671C9.20032 2.48337 9.25616 2.40671 9.32366 2.34171L9.39866 2.28337C9.43782 2.24004 9.48282 2.20421 9.53282 2.17504L9.62366 2.14171L9.76532 2.08337H10.1162C10.4295 2.11587 10.7053 2.30337 10.8495 2.58337L12.6987 6.30837C12.832 6.58087 13.0912 6.77004 13.3903 6.81587L17.532 7.41671C17.882 7.46671 18.1745 7.70837 18.2903 8.04171C18.3995 8.37587 18.3053 8.74254 18.0487 8.98337L14.932 11.9334Z" fill="black"/>
</svg>
