<svg width="40" height="40" viewBox="0 0 40 40" fill="none" xmlns="http://www.w3.org/2000/svg">
<rect width="40" height="40" rx="8" fill="#D2DFFF"/>
<path d="M23.4917 11.6667H16.5084C13.4751 11.6667 11.6667 13.475 11.6667 16.5084V23.4834C11.6667 26.525 13.4751 28.3334 16.5084 28.3334H23.4834C26.5167 28.3334 28.3251 26.525 28.3251 23.4917V16.5084C28.3334 13.475 26.5251 11.6667 23.4917 11.6667ZM23.9834 18.0834L19.2584 22.8084C19.1417 22.925 18.9834 22.9917 18.8167 22.9917C18.6501 22.9917 18.4917 22.925 18.3751 22.8084L16.0167 20.45C15.7751 20.2084 15.7751 19.8084 16.0167 19.5667C16.2584 19.325 16.6584 19.325 16.9001 19.5667L18.8167 21.4834L23.1001 17.2C23.3417 16.9584 23.7417 16.9584 23.9834 17.2C24.2251 17.4417 24.2251 17.8334 23.9834 18.0834Z" fill="#051449"/>
</svg>
