<svg width="94" height="19" viewBox="0 0 94 19" fill="none" xmlns="http://www.w3.org/2000/svg">
<path d="M15.1412 1.2L9.38116 11.448V18H6.09316V11.448L0.357156 1.2H4.10116L7.74916 8.208L11.3972 1.2H15.1412ZM23.0977 6H26.1937V18H23.0977V16.656C22.3457 17.776 21.1537 18.336 19.5217 18.336C18.2097 18.336 17.1217 17.896 16.2577 17.016C15.4097 16.136 14.9857 14.92 14.9857 13.368V6H18.0817V12.984C18.0817 13.784 18.2977 14.4 18.7297 14.832C19.1617 15.248 19.7377 15.456 20.4577 15.456C21.2577 15.456 21.8977 15.208 22.3777 14.712C22.8577 14.216 23.0977 13.472 23.0977 12.48V6ZM35.7013 5.664C37.0133 5.664 38.0933 6.104 38.9413 6.984C39.8053 7.864 40.2373 9.08 40.2373 10.632V18H37.1413V11.016C37.1413 10.216 36.9253 9.608 36.4933 9.192C36.0613 8.76 35.4853 8.544 34.7653 8.544C33.9653 8.544 33.3253 8.792 32.8453 9.288C32.3653 9.784 32.1253 10.528 32.1253 11.52V18H29.0293V6H32.1253V7.344C32.8773 6.224 34.0693 5.664 35.7013 5.664ZM44.4168 4.56C43.9048 4.56 43.4568 4.376 43.0728 4.008C42.7048 3.624 42.5208 3.176 42.5208 2.664C42.5208 2.152 42.7048 1.704 43.0728 1.32C43.4568 0.935999 43.9048 0.743999 44.4168 0.743999C44.9448 0.743999 45.3928 0.935999 45.7608 1.32C46.1448 1.704 46.3368 2.152 46.3368 2.664C46.3368 3.176 46.1448 3.624 45.7608 4.008C45.3928 4.376 44.9448 4.56 44.4168 4.56ZM42.8808 18V6H45.9768V18H42.8808ZM62.0825 5.664C63.4585 5.664 64.5545 6.112 65.3705 7.008C66.2025 7.904 66.6185 9.104 66.6185 10.608V18H63.5225V10.824C63.5225 10.104 63.3465 9.544 62.9945 9.144C62.6425 8.744 62.1465 8.544 61.5065 8.544C60.8025 8.544 60.2505 8.776 59.8505 9.24C59.4665 9.704 59.2745 10.376 59.2745 11.256V18H56.1785V10.824C56.1785 10.104 56.0025 9.544 55.6505 9.144C55.2985 8.744 54.8025 8.544 54.1625 8.544C53.4745 8.544 52.9225 8.776 52.5065 9.24C52.1065 9.704 51.9065 10.376 51.9065 11.256V18H48.8105V6H51.9065V7.272C52.6265 6.2 53.7385 5.664 55.2425 5.664C56.7145 5.664 57.8025 6.24 58.5065 7.392C59.3065 6.24 60.4985 5.664 62.0825 5.664ZM78.368 6H81.464V18H78.368V16.584C77.44 17.752 76.136 18.336 74.456 18.336C72.856 18.336 71.48 17.728 70.328 16.512C69.192 15.28 68.624 13.776 68.624 12C68.624 10.224 69.192 8.728 70.328 7.512C71.48 6.28 72.856 5.664 74.456 5.664C76.136 5.664 77.44 6.248 78.368 7.416V6ZM72.656 14.448C73.28 15.072 74.072 15.384 75.032 15.384C75.992 15.384 76.784 15.072 77.408 14.448C78.048 13.808 78.368 12.992 78.368 12C78.368 11.008 78.048 10.2 77.408 9.576C76.784 8.936 75.992 8.616 75.032 8.616C74.072 8.616 73.28 8.936 72.656 9.576C72.032 10.2 71.72 11.008 71.72 12C71.72 12.992 72.032 13.808 72.656 14.448ZM84.2715 18V0.48H87.3675V18H84.2715ZM90.2012 18V0.48H93.2972V18H90.2012Z" fill="black"/>
</svg>
